<mxfile host="app.diagrams.net" modified="2024-04-24T21:22:22.151Z" agent="Mozilla/5.0 (Windows NT 10.0; Win64; x64) AppleWebKit/537.36 (KHTML, like Gecko) Chrome/124.0.0.0 Safari/537.36 Edg/124.0.0.0" version="24.3.0" etag="RfwOg3JliKJdKHp1q6ar" type="github">
  <diagram name="Page-1" id="dEwU7lqr6XK24bRqHVwv">
    <mxGraphModel>
      <root>
        <mxCell id="0" />
        <mxCell id="1" parent="0" />
      </root>
    </mxGraphModel>
  </diagram>
</mxfile>
